*
G04 Mass Parameters ***
*
G04 Image ***
*
%INE:\MEUS DOCUMENTOS\PROJETOS\SOLDADOR\BACKUP1.BOT*%
%ICAS*%
%MOIN*%
%IPPOS*%
%ASAXBY*%
G74*%FSLAN2X34Y34*%
*
G04 Aperture Definitions ***
*
%ADD10R,0.0880X0.0880*%
%ADD11C,0.0880*%
%ADD12C,0.0520*%
%ADD13R,0.0520X0.0520*%
%ADD14R,0.0450X0.0450*%
%ADD15C,0.0450*%
%ADD16C,0.0620*%
%ADD17R,0.0620X0.0620*%
%ADD18C,0.1000*%
%ADD19R,0.1000X0.1000*%
%ADD20C,0.1260*%
%ADD21C,0.0394*%
*
G04 Plot Data ***
*
G54D21*
G01X-0006299Y0022833D02*
X-0003299D01*
Y0025195D01*
X-0025982Y0026769D02*
X-0020359Y0032393D01*
X-0016722D01*
X-0015625Y0031296D01*
X-0014369D01*
X-0025982Y0014959D02*
X-0022877Y0018065D01*
Y0019353D01*
X-0015377Y0026853D01*
Y0031296D01*
X-0014369D01*
X-0018534Y0003937D02*
X-0017490Y0002893D01*
X-0015164D01*
X-0014377Y0003680D01*
Y0020393D01*
X-0013877Y0020893D01*
X-0010877D01*
Y0020474D01*
X-0010235Y0019833D01*
X-0025982Y0025209D02*
Y0022031D01*
X-0013385Y0012597D02*
Y0009448D01*
Y0019683D02*
Y0015747D01*
X-0002362Y0011023D02*
X-0004589D01*
X-0005377Y0010235D01*
X-0007086D01*
X-0011810Y0031296D02*
Y0028738D01*
X-0010235Y0019833D02*
X-0010877Y0020474D01*
Y0023393D01*
X-0010377Y0023893D01*
X-0009207D01*
X-0007707Y0025393D01*
Y0032223D01*
X-0009127Y0033643D01*
X-0020838D01*
X-0027070Y0027411D01*
Y0026297D01*
X-0025982Y0025209D01*
X-0018534Y0003937D02*
X-0019534D01*
X-0016534D02*
X-0017534D01*
X-0002362Y0012583D02*
Y0017321D01*
X-0025982Y0014959D02*
Y0011795D01*
Y0011008D01*
X-0013385Y0015747D02*
Y0012597D01*
X-0007549Y0022833D02*
X-0010377Y0025661D01*
Y0031893D01*
X-0011377Y0032893D01*
X-0012377D01*
X-0013377Y0031893D01*
Y0029730D01*
X-0014369Y0028738D01*
X-0021385Y0019683D02*
Y0017393D01*
Y0015747D01*
X-0022377Y0014755D01*
Y0001573D01*
X-0021377Y0000573D01*
X-0014599D01*
X-0011235Y0003937D01*
X-0016534D02*
Y0010699D01*
X-0015377Y0011857D01*
Y0020893D01*
X-0011810Y0024459D01*
Y0028738D01*
X-0010235Y0003937D02*
X-0008302D01*
X-0002846Y0009393D01*
X-0002377D01*
X-0001377Y0010393D01*
Y0011597D01*
X-0002362Y0012583D01*
X-0017124Y0028738D02*
Y0026650D01*
X-0025982Y0017793D01*
Y0016519D01*
X-0007086Y0010235D02*
X-0010089D01*
X-0010877Y0009448D01*
X-0013385D01*
X-0021385Y0012597D02*
Y0010893D01*
Y0009448D01*
X-0012235Y0003937D02*
X-0015079Y0001093D01*
X-0019627D01*
X-0021385Y0002851D01*
Y0009448D01*
X-0025982D02*
X-0027627Y0011093D01*
Y0020386D01*
X-0025982Y0022031D01*
X-0002362Y0018881D02*
X-0003820D01*
X-0004719D01*
X-0005073Y0019235D01*
X-0007086D01*
X-0014369Y0028738D02*
Y0026429D01*
X-0013833Y0025893D01*
Y0023620D01*
X-0025982Y0020471D02*
X-0022833Y0023620D01*
X-0006299Y0025195D02*
Y0022833D01*
X-0010235D01*
G54D10*
X-0013385Y0019683D03*
Y0015747D03*
Y0009448D03*
Y0012597D03*
G54D11*
X-0021385Y0019683D03*
Y0015747D03*
Y0009448D03*
Y0012597D03*
G54D12*
X-0007086Y0010235D03*
Y0019235D03*
X-0022833Y0023620D03*
X-0013833D03*
X-0007549Y0022833D03*
G54D13*
X-0006299D03*
G54D14*
X-0003299Y0025195D03*
G54D15*
X-0010235Y0022833D03*
Y0019833D03*
X-0006299Y0025195D03*
G54D16*
X-0017534Y0003937D03*
X-0018534D03*
X-0019534D03*
X-0011235D03*
X-0012235D03*
G54D17*
X-0016534D03*
X-0010235D03*
G54D18*
X-0025982Y0025209D03*
Y0011008D03*
Y0016519D03*
Y0022031D03*
X-0002362Y0017321D03*
Y0012583D03*
G54D19*
X-0025982Y0026769D03*
Y0009448D03*
Y0014959D03*
Y0020471D03*
X-0002362Y0018881D03*
Y0011023D03*
G54D20*
X-0017124Y0028738D03*
X-0014369D03*
X-0011810D03*
Y0031296D03*
X-0014369D03*
X-0017124D03*
M02*
