*
G04 Mass Parameters ***
*
G04 Image ***
*
%INE:\MEUS DOCUMENTOS\PROJETOS\SOLDADOR\BACKUP1.DRD*%
%ICAS*%
%MOIN*%
%IPPOS*%
%ASAXBY*%
G74*%FSLAN2X34Y34*%
*
G04 Aperture Definitions ***
*
%ADD10R,0.0880X0.0880*%
%ADD11C,0.0880*%
%ADD12C,0.0520*%
%ADD13R,0.0520X0.0520*%
%ADD14R,0.0450X0.0450*%
%ADD15C,0.0450*%
%ADD16C,0.0620*%
%ADD17R,0.0620X0.0620*%
%ADD18C,0.1000*%
%ADD19R,0.1000X0.1000*%
%ADD20C,0.1260*%
%ADD21C,0.0394*%
%ADD22C,0.1310*%
%ADD23C,0.0080*%
%ADD24C,0.0500*%
%ADD25C,0.0100*%
*
G04 Plot Data ***
*
G54D24*
G01X-0028344D02*
Y0034249D01*
X0000000D01*
Y0000000D01*
X-0028344D01*
G54D25*
G01X0022467Y0005517D02*
X0022634Y0005350D01*
X0022967D01*
X0023134Y0005517D01*
Y0005683D01*
X0022800Y0006017D01*
X0023134Y0006350D01*
X0022467D01*
X0022184Y0005683D02*
X0021517D01*
X0021850Y0006350D01*
X0022017D01*
Y0005350D01*
X0010738D02*
X0010154D01*
Y0006350D01*
X0009871Y0005683D02*
X0009204D01*
X0009871Y0005350D02*
Y0005850D01*
X0009621Y0006350D01*
X0009454D01*
X0009204Y0005850D01*
Y0005350D01*
X0008588D02*
Y0006350D01*
X0008921D02*
X0008254D01*
X0007388Y0005350D02*
X0007304Y0005517D01*
Y0006183D01*
X0007388Y0006350D01*
X0007888D01*
X0007971Y0006183D01*
Y0005517D01*
X0007888Y0005350D01*
X0007388D01*
X0006688D02*
Y0006350D01*
X0007021D02*
X0006354D01*
X0022745Y0007544D02*
X0023078D01*
X0023134Y0007433D01*
Y0007322D01*
X0023078Y0007211D01*
X0022745D01*
X0022689Y0007322D01*
Y0007433D01*
X0022911Y0007878D01*
X0009295Y0007211D02*
Y0007544D01*
X0009517Y0007211D02*
Y0007544D01*
X0009461Y0007655D01*
X0009350D01*
X0009295Y0007544D01*
X0009239Y0007655D01*
X0009128D01*
X0009072Y0007544D01*
Y0007211D01*
X0008595D02*
Y0007544D01*
X0008817Y0007211D02*
Y0007544D01*
X0008761Y0007655D01*
X0008650D01*
X0008595Y0007544D01*
X0008539Y0007655D01*
X0008428D01*
X0008372Y0007544D01*
Y0007211D01*
X0007167Y0007433D02*
X0006722D01*
X0006945Y0007878D01*
X0007056D01*
Y0007211D01*
X0006411Y0007544D02*
X0006078D01*
X0006022Y0007655D01*
Y0007767D01*
X0006078Y0007878D01*
X0006411D01*
X0006467Y0007767D01*
Y0007655D01*
X0006245Y0007211D01*
X0005434D02*
X0005767Y0007878D01*
X0005322D01*
X0004956Y0007211D02*
X0005067D01*
Y0007322D01*
X0004956D01*
Y0007211D01*
X0004589D02*
X0004145D01*
X0004589Y0007655D01*
Y0007767D01*
X0004534Y0007878D01*
X0004200D01*
X0004145Y0007767D01*
X0023134Y0008711D02*
X0022689D01*
X0023134Y0009155D01*
Y0009267D01*
X0023078Y0009378D01*
X0022745D01*
X0022689Y0009267D01*
X0022434Y0008711D02*
X0022211D01*
X0022323D02*
Y0009378D01*
X0022211Y0009267D01*
X0009295Y0008711D02*
Y0009044D01*
X0009517Y0008711D02*
Y0009044D01*
X0009461Y0009155D01*
X0009350D01*
X0009295Y0009044D01*
X0009239Y0009155D01*
X0009128D01*
X0009072Y0009044D01*
Y0008711D01*
X0008595D02*
Y0009044D01*
X0008817Y0008711D02*
Y0009044D01*
X0008761Y0009155D01*
X0008650D01*
X0008595Y0009044D01*
X0008539Y0009155D01*
X0008428D01*
X0008372Y0009044D01*
Y0008711D01*
X0007111Y0009044D02*
X0007167Y0009155D01*
Y0009267D01*
X0007111Y0009378D01*
X0006778D01*
X0006722Y0009267D01*
Y0009155D01*
X0006778Y0009044D01*
X0007111D01*
X0007167Y0008933D01*
Y0008822D01*
X0007111Y0008711D01*
X0006778D01*
X0006722Y0008822D01*
Y0008933D01*
X0006778Y0009044D01*
X0006134Y0008711D02*
X0006467Y0009378D01*
X0006022D01*
X0005434Y0008711D02*
X0005767Y0009378D01*
X0005322D01*
X0004956Y0008711D02*
X0005067D01*
Y0008822D01*
X0004956D01*
Y0008711D01*
X0004589D02*
X0004367D01*
X0004478D02*
Y0009378D01*
X0004367Y0009267D01*
X0023078Y0010544D02*
X0023134Y0010655D01*
Y0010767D01*
X0023078Y0010878D01*
X0022745D01*
X0022689Y0010767D01*
Y0010655D01*
X0022745Y0010544D01*
X0023078D01*
X0023134Y0010433D01*
Y0010322D01*
X0023078Y0010211D01*
X0022745D01*
X0022689Y0010322D01*
Y0010433D01*
X0022745Y0010544D01*
X0009295Y0010211D02*
Y0010544D01*
X0009517Y0010211D02*
Y0010544D01*
X0009461Y0010655D01*
X0009350D01*
X0009295Y0010544D01*
X0009239Y0010655D01*
X0009128D01*
X0009072Y0010544D01*
Y0010211D01*
X0008595D02*
Y0010544D01*
X0008817Y0010211D02*
Y0010544D01*
X0008761Y0010655D01*
X0008650D01*
X0008595Y0010544D01*
X0008539Y0010655D01*
X0008428D01*
X0008372Y0010544D01*
Y0010211D01*
X0007167D02*
X0006722D01*
X0007167Y0010655D01*
Y0010767D01*
X0007111Y0010878D01*
X0006778D01*
X0006722Y0010767D01*
X0006189Y0010211D02*
X0006078Y0010322D01*
X0006022Y0010433D01*
Y0010655D01*
X0006078Y0010767D01*
X0006189Y0010878D01*
X0006300D01*
X0006411Y0010767D01*
X0006467Y0010655D01*
Y0010433D01*
X0006411Y0010322D01*
X0006300Y0010211D01*
X0006189D01*
X0005434D02*
X0005767Y0010878D01*
X0005322D01*
X0004956Y0010211D02*
X0005067D01*
Y0010322D01*
X0004956D01*
Y0010211D01*
X0004589D02*
X0004367D01*
X0004478D02*
Y0010878D01*
X0004367Y0010767D01*
X0022800Y0011711D02*
X0023134Y0012378D01*
X0022689D01*
X0009295Y0011711D02*
Y0012044D01*
X0009517Y0011711D02*
Y0012044D01*
X0009461Y0012155D01*
X0009350D01*
X0009295Y0012044D01*
X0009239Y0012155D01*
X0009128D01*
X0009072Y0012044D01*
Y0011711D01*
X0008595D02*
Y0012044D01*
X0008817Y0011711D02*
Y0012044D01*
X0008761Y0012155D01*
X0008650D01*
X0008595Y0012044D01*
X0008539Y0012155D01*
X0008428D01*
X0008372Y0012044D01*
Y0011711D01*
X0006834D02*
X0007167Y0012378D01*
X0006722D01*
X0006078Y0012044D02*
X0006411D01*
X0006467Y0011933D01*
Y0011822D01*
X0006411Y0011711D01*
X0006078D01*
X0006022Y0011822D01*
Y0011933D01*
X0006245Y0012378D01*
X0005489Y0011711D02*
X0005378Y0011822D01*
X0005322Y0011933D01*
Y0012155D01*
X0005378Y0012267D01*
X0005489Y0012378D01*
X0005600D01*
X0005711Y0012267D01*
X0005767Y0012155D01*
Y0011933D01*
X0005711Y0011822D01*
X0005600Y0011711D01*
X0005489D01*
X0004956D02*
X0005067D01*
Y0011822D01*
X0004956D01*
Y0011711D01*
X0004589D02*
X0004367D01*
X0004478D02*
Y0012378D01*
X0004367Y0012267D01*
X0022745Y0013544D02*
X0023078D01*
X0023134Y0013433D01*
Y0013322D01*
X0023078Y0013211D01*
X0022745D01*
X0022689Y0013322D01*
Y0013433D01*
X0022911Y0013878D01*
X0009295Y0013211D02*
Y0013544D01*
X0009517Y0013211D02*
Y0013544D01*
X0009461Y0013655D01*
X0009350D01*
X0009295Y0013544D01*
X0009239Y0013655D01*
X0009128D01*
X0009072Y0013544D01*
Y0013211D01*
X0008595D02*
Y0013544D01*
X0008817Y0013211D02*
Y0013544D01*
X0008761Y0013655D01*
X0008650D01*
X0008595Y0013544D01*
X0008539Y0013655D01*
X0008428D01*
X0008372Y0013544D01*
Y0013211D01*
X0006834D02*
X0007167Y0013878D01*
X0006722D01*
X0006411Y0013544D02*
X0006467Y0013655D01*
Y0013767D01*
X0006411Y0013878D01*
X0006078D01*
X0006022Y0013767D01*
Y0013655D01*
X0006078Y0013544D01*
X0006411D01*
X0006467Y0013433D01*
Y0013322D01*
X0006411Y0013211D01*
X0006078D01*
X0006022Y0013322D01*
Y0013433D01*
X0006078Y0013544D01*
X0005434Y0013211D02*
X0005767Y0013878D01*
X0005322D01*
X0004956Y0013211D02*
X0005067D01*
Y0013322D01*
X0004956D01*
Y0013211D01*
X0004311D02*
X0004200Y0013322D01*
X0004145Y0013433D01*
Y0013655D01*
X0004200Y0013767D01*
X0004311Y0013878D01*
X0004423D01*
X0004422D02*
X0004534Y0013767D01*
X0004589Y0013655D01*
Y0013433D01*
X0004534Y0013322D01*
X0004423Y0013211D01*
X0004422D02*
X0004311D01*
X0023134Y0014933D02*
X0022689D01*
X0022911Y0015378D01*
X0023022D01*
Y0014711D01*
X0009295D02*
Y0015044D01*
X0009517Y0014711D02*
Y0015044D01*
X0009461Y0015155D01*
X0009350D01*
X0009295Y0015044D01*
X0009239Y0015155D01*
X0009128D01*
X0009072Y0015044D01*
Y0014711D01*
X0008595D02*
Y0015044D01*
X0008817Y0014711D02*
Y0015044D01*
X0008761Y0015155D01*
X0008650D01*
X0008595Y0015044D01*
X0008539Y0015155D01*
X0008428D01*
X0008372Y0015044D01*
Y0014711D01*
X0007167D02*
X0006945D01*
X0007056D02*
Y0015378D01*
X0006945Y0015267D01*
X0006578Y0014711D02*
X0006356D01*
X0006467D02*
Y0015378D01*
X0006356Y0015267D01*
X0005656Y0014711D02*
X0005989Y0015378D01*
X0005545D01*
X0005178Y0014711D02*
X0005289D01*
Y0014822D01*
X0005178D01*
Y0014711D01*
X0004534D02*
X0004423Y0014822D01*
X0004367Y0014933D01*
Y0015155D01*
X0004423Y0015267D01*
X0004534Y0015378D01*
X0004645D01*
X0004756Y0015267D01*
X0004812Y0015155D01*
Y0014933D01*
X0004756Y0014822D01*
X0004645Y0014711D01*
X0004534D01*
X0031538Y0016850D02*
X0031038D01*
X0031704Y0016350D02*
X0031038D01*
Y0017350D01*
X0031704D01*
X0030421Y0016350D02*
Y0017350D01*
X0030754D02*
X0030088D01*
X0029221Y0016350D02*
X0029138Y0016517D01*
Y0017183D01*
X0029221Y0017350D01*
X0029721D01*
X0029804Y0017183D01*
Y0016517D01*
X0029721Y0016350D01*
X0029221D01*
X0028854Y0017350D02*
Y0016350D01*
X0028688Y0016517D01*
X0028354Y0017183D01*
X0028188Y0017350D01*
Y0016350D01*
X0022350D02*
Y0016850D01*
X0022684Y0017350D02*
X0022434Y0016850D01*
X0022267D01*
X0022017Y0017350D01*
X0021400Y0016350D02*
Y0017350D01*
X0021734D02*
X0021067D01*
X0020450Y0016683D02*
X0020784Y0016350D01*
X0020117Y0016517D02*
X0020200Y0016350D01*
X0020534D01*
X0020617Y0016517D01*
X0020784Y0016683D01*
Y0017183D01*
X0020700Y0017350D01*
X0020200D01*
X0020117Y0017183D01*
Y0016517D01*
X0015834Y0016350D02*
X0015250D01*
Y0017350D01*
X0014384Y0016350D02*
X0014300Y0016517D01*
Y0017183D01*
X0014384Y0017350D01*
X0014884D01*
X0014967Y0017183D01*
Y0016517D01*
X0014884Y0016350D01*
X0014384D01*
X0013684D02*
Y0017350D01*
X0014017D02*
X0013350D01*
X0008013Y0016350D02*
Y0017350D01*
X0007846Y0017183D01*
X0007679Y0016850D01*
X0007513Y0017183D01*
X0007346Y0017350D01*
Y0016350D01*
X0007063Y0016683D02*
X0006396D01*
X0007063Y0016350D02*
Y0016850D01*
X0006813Y0017350D01*
X0006646D01*
X0006396Y0016850D01*
Y0016350D01*
X0006113D02*
X0005779D01*
X0005946D02*
Y0017350D01*
X0006113D02*
X0005779D01*
X0004746Y0016350D02*
Y0017350D01*
X0004663Y0016350D02*
X0005163D01*
X0005329Y0016683D01*
Y0017017D01*
X0005163Y0017350D01*
X0004663D01*
X0001575Y0016350D02*
Y0017350D01*
X0001409Y0017183D01*
X0001242Y0016850D01*
X0001075Y0017183D01*
X0000909Y0017350D01*
Y0016350D01*
X0000292D02*
Y0016850D01*
X0000625Y0017350D02*
X0000375Y0016850D01*
X0000209D01*
X-0000041Y0017350D01*
X-0000325Y0017183D02*
X-0000408Y0017350D01*
X-0000908D01*
X-0000991Y0017183D01*
Y0017017D01*
X-0000908Y0016850D01*
X-0000408D01*
X-0000325Y0016683D01*
Y0016517D01*
X-0000408Y0016350D01*
X-0000908D01*
X-0000991Y0016517D01*
X0021863Y0018350D02*
Y0019350D01*
X0022196D02*
X0021529D01*
X0020996Y0018850D02*
X0021246Y0018350D01*
X0020579Y0018850D02*
X0021079D01*
X0021246Y0019017D01*
Y0019183D01*
X0021079Y0019350D01*
X0020579D01*
Y0018350D01*
X0020296Y0018683D02*
X0019629D01*
X0020296Y0018350D02*
Y0018850D01*
X0020046Y0019350D01*
X0019879D01*
X0019629Y0018850D01*
Y0018350D01*
X0019346Y0018850D02*
X0018679D01*
X0019346Y0018350D02*
Y0019350D01*
X0018679Y0018350D02*
Y0019350D01*
X0018396Y0018517D02*
X0018313Y0018350D01*
X0017813D01*
X0017729Y0018517D01*
Y0019183D01*
X0017813Y0019350D01*
X0018313D01*
X0018396Y0019183D01*
X0016121Y0018350D02*
X0015538D01*
Y0019350D01*
X0015254Y0018350D02*
X0014671D01*
Y0019350D01*
X0014388Y0018350D02*
X0014055D01*
X0014221D02*
Y0019350D01*
X0014388D02*
X0014055D01*
X0013355Y0018850D02*
X0013605Y0018350D01*
X0012938Y0018850D02*
X0013438D01*
X0013605Y0019017D01*
Y0019183D01*
X0013438Y0019350D01*
X0012938D01*
Y0018350D01*
X0012071D02*
Y0019350D01*
X0011988Y0018350D02*
X0012488D01*
X0012655Y0018683D01*
Y0019017D01*
X0012488Y0019350D01*
X0011988D01*
X0000000Y0007683D02*
Y0007183D01*
X0000500Y0007683D02*
X0000000D01*
X0000500Y0007183D02*
Y0007683D01*
X0000000Y0007183D02*
X0000500D01*
Y0007433D02*
X0000000D01*
X0000250Y0007683D02*
Y0007183D01*
X0000000Y0009183D02*
Y0008933D01*
X0000250Y0009183D02*
X0000000D01*
X0000250Y0008683D02*
Y0009183D01*
X0000500Y0008683D02*
X0000250D01*
X0000500Y0008933D02*
Y0008683D01*
X0000000Y0008933D02*
X0000500D01*
X0000250Y0010683D02*
X0000000Y0010433D01*
X0000500D02*
X0000250Y0010683D01*
Y0010183D02*
X0000500Y0010433D01*
X0000000D02*
X0000250Y0010183D01*
X0000000Y0012183D02*
Y0011683D01*
X0000500Y0012183D02*
X0000000D01*
X0000500Y0011683D02*
Y0012183D01*
X0000000Y0011683D02*
X0000500D01*
Y0012183D02*
X0000000Y0011683D01*
X0000500D02*
X0000000Y0012183D01*
X0000500Y0013433D02*
X0000000D01*
X0000250Y0013683D02*
Y0013183D01*
X0000500Y0015183D02*
X0000000Y0014683D01*
X0000500D02*
X0000000Y0015183D01*
X0035725Y0004633D02*
X-0001625D01*
X0035675Y0004683D02*
X-0001575D01*
X0035675Y0006683D02*
X-0001575D01*
X0035675Y0008183D02*
X-0001575D01*
X0035675Y0009683D02*
X-0001575D01*
X0035675Y0011183D02*
X-0001575D01*
X0035675Y0012683D02*
X-0001575D01*
X0035675Y0014183D02*
X-0001575D01*
X0035675Y0015683D02*
X-0001575D01*
X0035675Y0015733D02*
X-0001575D01*
X0035675Y0017683D02*
X-0001575D01*
X0035675Y0017733D02*
X-0001575D01*
X0035675Y0019683D02*
X-0001575D01*
X0035725Y0019733D02*
X-0001625D01*
X0035725Y0004683D02*
Y0019683D01*
X0035675Y0004683D02*
Y0019683D01*
X0024134Y0004683D02*
Y0017683D01*
X0018584Y0004683D02*
Y0017683D01*
X0010517Y0006683D02*
Y0017683D01*
X0002125Y0006683D02*
Y0017683D01*
X0002075Y0006683D02*
Y0017683D01*
X-0001625Y0004683D02*
Y0019683D01*
X-0001575Y0004683D02*
Y0019683D01*
X-0017374Y0028988D02*
Y0028488D01*
X-0016874Y0028988D02*
X-0017374D01*
X-0016874Y0028488D02*
Y0028988D01*
X-0017374Y0028488D02*
X-0016874D01*
Y0028738D02*
X-0017374D01*
X-0017124Y0028988D02*
Y0028488D01*
X-0014619Y0028988D02*
Y0028488D01*
X-0014119Y0028988D02*
X-0014619D01*
X-0014119Y0028488D02*
Y0028988D01*
X-0014619Y0028488D02*
X-0014119D01*
Y0028738D02*
X-0014619D01*
X-0014369Y0028988D02*
Y0028488D01*
X-0012060Y0028988D02*
Y0028488D01*
X-0011560Y0028988D02*
X-0012060D01*
X-0011560Y0028488D02*
Y0028988D01*
X-0012060Y0028488D02*
X-0011560D01*
Y0028738D02*
X-0012060D01*
X-0011810Y0028988D02*
Y0028488D01*
X-0012060Y0031546D02*
Y0031046D01*
X-0011560Y0031546D02*
X-0012060D01*
X-0011560Y0031046D02*
Y0031546D01*
X-0012060Y0031046D02*
X-0011560D01*
Y0031296D02*
X-0012060D01*
X-0011810Y0031546D02*
Y0031046D01*
X-0014619Y0031546D02*
Y0031046D01*
X-0014119Y0031546D02*
X-0014619D01*
X-0014119Y0031046D02*
Y0031546D01*
X-0014619Y0031046D02*
X-0014119D01*
Y0031296D02*
X-0014619D01*
X-0014369Y0031546D02*
Y0031046D01*
X-0017374Y0031546D02*
Y0031046D01*
X-0016874Y0031546D02*
X-0017374D01*
X-0016874Y0031046D02*
Y0031546D01*
X-0017374Y0031046D02*
X-0016874D01*
Y0031296D02*
X-0017374D01*
X-0017124Y0031546D02*
Y0031046D01*
X-0006836Y0010235D02*
X-0007336D01*
X-0007086Y0010485D02*
Y0009985D01*
X-0006836Y0019235D02*
X-0007336D01*
X-0007086Y0019485D02*
Y0018985D01*
X-0009985Y0023083D02*
X-0010485Y0022583D01*
X-0009985D02*
X-0010485Y0023083D01*
X-0009985Y0020083D02*
X-0010485Y0019583D01*
X-0009985D02*
X-0010485Y0020083D01*
X-0016784Y0004187D02*
Y0003687D01*
X-0016284Y0004187D02*
X-0016784D01*
X-0016284Y0003687D02*
Y0004187D01*
X-0016784Y0003687D02*
X-0016284D01*
Y0004187D02*
X-0016784Y0003687D01*
X-0016284D02*
X-0016784Y0004187D01*
X-0017784D02*
Y0003687D01*
X-0017284Y0004187D02*
X-0017784D01*
X-0017284Y0003687D02*
Y0004187D01*
X-0017784Y0003687D02*
X-0017284D01*
Y0004187D02*
X-0017784Y0003687D01*
X-0017284D02*
X-0017784Y0004187D01*
X-0018784D02*
Y0003687D01*
X-0018284Y0004187D02*
X-0018784D01*
X-0018284Y0003687D02*
Y0004187D01*
X-0018784Y0003687D02*
X-0018284D01*
Y0004187D02*
X-0018784Y0003687D01*
X-0018284D02*
X-0018784Y0004187D01*
X-0019784D02*
Y0003687D01*
X-0019284Y0004187D02*
X-0019784D01*
X-0019284Y0003687D02*
Y0004187D01*
X-0019784Y0003687D02*
X-0019284D01*
Y0004187D02*
X-0019784Y0003687D01*
X-0019284D02*
X-0019784Y0004187D01*
X-0026232Y0027019D02*
Y0026769D01*
X-0025982Y0027019D02*
X-0026232D01*
X-0025982Y0026519D02*
Y0027019D01*
X-0025732Y0026519D02*
X-0025982D01*
X-0025732Y0026769D02*
Y0026519D01*
X-0026232Y0026769D02*
X-0025732D01*
X-0026232Y0025459D02*
Y0025209D01*
X-0025982Y0025459D02*
X-0026232D01*
X-0025982Y0024959D02*
Y0025459D01*
X-0025732Y0024959D02*
X-0025982D01*
X-0025732Y0025209D02*
Y0024959D01*
X-0026232Y0025209D02*
X-0025732D01*
X-0026232Y0009698D02*
Y0009448D01*
X-0025982Y0009698D02*
X-0026232D01*
X-0025982Y0009198D02*
Y0009698D01*
X-0025732Y0009198D02*
X-0025982D01*
X-0025732Y0009448D02*
Y0009198D01*
X-0026232Y0009448D02*
X-0025732D01*
X-0026232Y0011258D02*
Y0011008D01*
X-0025982Y0011258D02*
X-0026232D01*
X-0025982Y0010758D02*
Y0011258D01*
X-0025732Y0010758D02*
X-0025982D01*
X-0025732Y0011008D02*
Y0010758D01*
X-0026232Y0011008D02*
X-0025732D01*
X-0026232Y0015209D02*
Y0014959D01*
X-0025982Y0015209D02*
X-0026232D01*
X-0025982Y0014709D02*
Y0015209D01*
X-0025732Y0014709D02*
X-0025982D01*
X-0025732Y0014959D02*
Y0014709D01*
X-0026232Y0014959D02*
X-0025732D01*
X-0026232Y0016769D02*
Y0016519D01*
X-0025982Y0016769D02*
X-0026232D01*
X-0025982Y0016269D02*
Y0016769D01*
X-0025732Y0016269D02*
X-0025982D01*
X-0025732Y0016519D02*
Y0016269D01*
X-0026232Y0016519D02*
X-0025732D01*
X-0026232Y0020721D02*
Y0020471D01*
X-0025982Y0020721D02*
X-0026232D01*
X-0025982Y0020221D02*
Y0020721D01*
X-0025732Y0020221D02*
X-0025982D01*
X-0025732Y0020471D02*
Y0020221D01*
X-0026232Y0020471D02*
X-0025732D01*
X-0026232Y0022281D02*
Y0022031D01*
X-0025982Y0022281D02*
X-0026232D01*
X-0025982Y0021781D02*
Y0022281D01*
X-0025732Y0021781D02*
X-0025982D01*
X-0025732Y0022031D02*
Y0021781D01*
X-0026232Y0022031D02*
X-0025732D01*
X-0002612Y0019131D02*
Y0018881D01*
X-0002362Y0019131D02*
X-0002612D01*
X-0002362Y0018631D02*
Y0019131D01*
X-0002112Y0018631D02*
X-0002362D01*
X-0002112Y0018881D02*
Y0018631D01*
X-0002612Y0018881D02*
X-0002112D01*
X-0002612Y0017571D02*
Y0017321D01*
X-0002362Y0017571D02*
X-0002612D01*
X-0002362Y0017071D02*
Y0017571D01*
X-0002112Y0017071D02*
X-0002362D01*
X-0002112Y0017321D02*
Y0017071D01*
X-0002612Y0017321D02*
X-0002112D01*
X-0002612Y0011273D02*
Y0011023D01*
X-0002362Y0011273D02*
X-0002612D01*
X-0002362Y0010773D02*
Y0011273D01*
X-0002112Y0010773D02*
X-0002362D01*
X-0002112Y0011023D02*
Y0010773D01*
X-0002612Y0011023D02*
X-0002112D01*
X-0002612Y0012833D02*
Y0012583D01*
X-0002362Y0012833D02*
X-0002612D01*
X-0002362Y0012333D02*
Y0012833D01*
X-0002112Y0012333D02*
X-0002362D01*
X-0002112Y0012583D02*
Y0012333D01*
X-0002612Y0012583D02*
X-0002112D01*
X-0010485Y0004187D02*
Y0003687D01*
X-0009985Y0004187D02*
X-0010485D01*
X-0009985Y0003687D02*
Y0004187D01*
X-0010485Y0003687D02*
X-0009985D01*
Y0004187D02*
X-0010485Y0003687D01*
X-0009985D02*
X-0010485Y0004187D01*
X-0011485D02*
Y0003687D01*
X-0010985Y0004187D02*
X-0011485D01*
X-0010985Y0003687D02*
Y0004187D01*
X-0011485Y0003687D02*
X-0010985D01*
Y0004187D02*
X-0011485Y0003687D01*
X-0010985D02*
X-0011485Y0004187D01*
X-0012485D02*
Y0003687D01*
X-0011985Y0004187D02*
X-0012485D01*
X-0011985Y0003687D02*
Y0004187D01*
X-0012485Y0003687D02*
X-0011985D01*
Y0004187D02*
X-0012485Y0003687D01*
X-0011985D02*
X-0012485Y0004187D01*
X-0022583Y0023620D02*
X-0023083D01*
X-0022833Y0023870D02*
Y0023370D01*
X-0013583Y0023620D02*
X-0014083D01*
X-0013833Y0023870D02*
Y0023370D01*
X-0006049Y0025445D02*
X-0006549Y0024945D01*
X-0006049D02*
X-0006549Y0025445D01*
X-0003049D02*
X-0003549Y0024945D01*
X-0003049D02*
X-0003549Y0025445D01*
X-0006049Y0022833D02*
X-0006549D01*
X-0006299Y0023083D02*
Y0022583D01*
X-0007299Y0022833D02*
X-0007799D01*
X-0007549Y0023083D02*
Y0022583D01*
X-0021385Y0019933D02*
X-0021635Y0019683D01*
X-0021135D02*
X-0021385Y0019933D01*
Y0019433D02*
X-0021135Y0019683D01*
X-0021635D02*
X-0021385Y0019433D01*
X-0013385Y0019933D02*
X-0013635Y0019683D01*
X-0013135D02*
X-0013385Y0019933D01*
Y0019433D02*
X-0013135Y0019683D01*
X-0013635D02*
X-0013385Y0019433D01*
X-0021385Y0015997D02*
X-0021635Y0015747D01*
X-0021135D02*
X-0021385Y0015997D01*
Y0015497D02*
X-0021135Y0015747D01*
X-0021635D02*
X-0021385Y0015497D01*
X-0013385Y0015997D02*
X-0013635Y0015747D01*
X-0013135D02*
X-0013385Y0015997D01*
Y0015497D02*
X-0013135Y0015747D01*
X-0013635D02*
X-0013385Y0015497D01*
X-0021385Y0009698D02*
X-0021635Y0009448D01*
X-0021135D02*
X-0021385Y0009698D01*
Y0009198D02*
X-0021135Y0009448D01*
X-0021635D02*
X-0021385Y0009198D01*
X-0013385Y0009698D02*
X-0013635Y0009448D01*
X-0013135D02*
X-0013385Y0009698D01*
Y0009198D02*
X-0013135Y0009448D01*
X-0013635D02*
X-0013385Y0009198D01*
X-0021385Y0012847D02*
X-0021635Y0012597D01*
X-0021135D02*
X-0021385Y0012847D01*
Y0012347D02*
X-0021135Y0012597D01*
X-0021635D02*
X-0021385Y0012347D01*
X-0013385Y0012847D02*
X-0013635Y0012597D01*
X-0013135D02*
X-0013385Y0012847D01*
Y0012347D02*
X-0013135Y0012597D01*
X-0013635D02*
X-0013385Y0012347D01*
M02*
