*
G04 Mass Parameters ***
*
G04 Image ***
*
%INE:\MEUS DOCUMENTOS\PROJETOS\SOLDADOR\BACKUP1.SMB*%
%ICAS*%
%MOIN*%
%IPPOS*%
%ASAXBY*%
G74*%FSLAN2X34Y34*%
*
G04 Aperture Definitions ***
*
%ADD10R,0.0880X0.0880*%
%ADD11C,0.0880*%
%ADD12C,0.0520*%
%ADD13R,0.0520X0.0520*%
%ADD14R,0.0450X0.0450*%
%ADD15C,0.0450*%
%ADD16C,0.0620*%
%ADD17R,0.0620X0.0620*%
%ADD18C,0.1000*%
%ADD19R,0.1000X0.1000*%
%ADD20C,0.1260*%
%ADD21C,0.0394*%
%ADD22C,0.1310*%
*
G04 Plot Data ***
*
G54D10*
X-0013385Y0019683D03*
Y0015747D03*
Y0009448D03*
Y0012597D03*
G54D11*
X-0021385Y0019683D03*
Y0015747D03*
Y0009448D03*
Y0012597D03*
G54D12*
X-0007086Y0010235D03*
Y0019235D03*
X-0022833Y0023620D03*
X-0013833D03*
X-0007549Y0022833D03*
G54D13*
X-0006299D03*
G54D14*
X-0003299Y0025195D03*
G54D15*
X-0010235Y0022833D03*
Y0019833D03*
X-0006299Y0025195D03*
G54D16*
X-0017534Y0003937D03*
X-0018534D03*
X-0019534D03*
X-0011235D03*
X-0012235D03*
G54D17*
X-0016534D03*
X-0010235D03*
G54D18*
X-0025982Y0025209D03*
Y0011008D03*
Y0016519D03*
Y0022031D03*
X-0002362Y0017321D03*
Y0012583D03*
G54D19*
X-0025982Y0026769D03*
Y0009448D03*
Y0014959D03*
Y0020471D03*
X-0002362Y0018881D03*
Y0011023D03*
G54D22*
X-0017124Y0028738D03*
X-0014369D03*
X-0011810D03*
Y0031296D03*
X-0014369D03*
X-0017124D03*
M02*
