%
T5C0.070F200S100
X-025982Y009448
X-025982Y011008
X-025982Y014959
X-025982Y016519
X-025982Y020471
X-025982Y022031
X-025982Y025209
X-025982Y026769
X-002362Y011023
X-002362Y012583
X-002362Y017321
X-002362Y018881
T1C0.028F200S100
X-010235Y019833
X-010235Y022833
X-006299Y025195
X-003299Y025195
T2C0.031F200S100
X-022833Y023620
X-013833Y023620
X-007549Y022833
X-007086Y010235
X-007086Y019235
X-006299Y022833
T6C0.110F200S100
X-017124Y028738
X-017124Y031296
X-014369Y028738
X-014369Y031296
X-011810Y028738
X-011810Y031296
T3C0.042F200S100
X-019534Y003937
X-018534Y003937
X-017534Y003937
X-016534Y003937
X-012235Y003937
X-011235Y003937
X-010235Y003937
T4C0.067F200S100
X-021385Y009448
X-021385Y012597
X-021385Y015747
X-021385Y019683
X-013385Y009448
X-013385Y012597
X-013385Y015747
X-013385Y019683
M30
